#!OML:ASF X:\für Bonn\!DataBase\2005_08_12_Daniel\c3d\Daniel.ASF
:FULLY-SPECIFIED
:DEGREES
65
root -2.91909 8.89553 -2.85995 314.573 -82.5051 -340.721
lowerback 51.0097 -3.62852 0.292771
upperback 4.19911 -5.97467 -2.45134
thorax -16.5088 -2.9871 0.22897
lowerneck 6.3746 2.40307 -1.8476
upperneck -0.760474 2.99899 -1.25112
head -1.31101 1.51826 -0.168631
rclavicle 2.76808e-014 -1.41137e-014
rhumerus 66.8138 6.58458 -80.3027
rradius 12.5056
rwrist 46.7551
rhand -21.251 14.9429
rfingers 7.12502
rthumb 5.13201 -14.9749
lclavicle 2.76808e-014 -1.41137e-014
lhumerus 68.5846 -5.24522 73.0432
lradius 13.0037
lwrist -45.6656
lhand -19.9523 2.4878
lfingers 7.12502
lthumb 6.38585 32.3715
rfemur -0.919291 -58.5529 -80.7639
rtibia 138.324
rfoot -34.9306 61.3986
rtoes -3.53729
lfemur -59.8046 30.685 1.81667
ltibia 135.247
lfoot -20.139 -42.9312
ltoes 4.578
66
root -2.93268 8.69203 -2.85833 314.831 -82.5386 -341.595
lowerback 51.6197 -3.67319 0.382637
upperback 4.30707 -6.0087 -2.42479
thorax -16.4693 -3.01923 0.243396
lowerneck 6.16681 2.43856 -1.90597
upperneck -0.701923 3.052 -1.15149
head -1.25873 1.54227 -0.126323
rclavicle 2.42517e-014 1.70955e-014
rhumerus 67.1377 6.95589 -79.0938
rradius 12.5174
rwrist 45.36
rhand -21.5346 15.008
rfingers 7.12502
rthumb 4.85817 -14.9163
lclavicle 2.42517e-014 1.70955e-014
lhumerus 68.5451 -5.32419 72.6179
lradius 13.3724
lwrist -45.4285
lhand -19.9155 2.37931
lfingers 7.12502
lthumb 6.42143 32.262
rfemur 5.00868 -58.2159 -90.0447
rtibia 139.928
rfoot -38.4217 63.5448
rtoes -3.2099
lfemur -60.2522 32.9741 3.68134
ltibia 136.884
lfoot -19.2581 -44.7989
ltoes 4.88773
67
root -2.94798 8.49037 -2.85579 314.97 -82.5646 -342.378
lowerback 52.1675 -3.70255 0.435104
upperback 4.45345 -6.04434 -2.38711
thorax -16.3662 -3.05377 0.285503
lowerneck 6.04719 2.47301 -1.98469
upperneck -0.720103 3.0985 -1.06328
head -1.24668 1.56449 -0.0858938
rclavicle -6.11263e-015 -1.78906e-015
rhumerus 67.3296 7.26412 -78.2201
rradius 12.6652
rwrist 44.3199
rhand -21.7615 15.1172
rfingers 7.12502
rthumb 4.6391 -14.812
lclavicle -6.11263e-015 -1.78906e-015
lhumerus 68.4892 -5.36495 72.233
lradius 13.7144
lwrist -45.2837
lhand -19.9297 2.2412
lfingers 7.12502
lthumb 6.40769 32.1243
rfemur 10.2645 -57.2909 -98.7574
rtibia 141.5
rfoot -42.6158 65.386
rtoes -3.03888
lfemur -60.5822 35.3597 5.71568
ltibia 138.505
lfoot -18.4474 -46.694
ltoes 5.04698
68
root -2.9655 8.29102 -2.85451 315.062 -82.5615 -343.168
lowerback 52.7141 -3.72954 0.472269
upperback 4.61005 -6.08876 -2.35676
thorax -16.247 -3.09277 0.330169
lowerneck 6.00993 2.51507 -2.01814
upperneck -0.751539 3.15464 -1.01376
head -1.25191 1.59224 -0.06646
rclavicle 2.27111e-014 -2.20651e-014
rhumerus 67.3747 7.54488 -77.4404
rradius 12.9694
rwrist 43.3266
rhand -21.7748 15.1872
rfingers 7.12502
rthumb 4.62618 -14.7422
lclavicle 2.27111e-014 -2.20651e-014
lhumerus 68.4048 -5.38107 72.0818
lradius 13.917
lwrist -45.3377
lhand -20.1185 2.10007
lfingers 7.12502
lthumb 6.22542 31.9886
rfemur 14.4249 -55.886 -106.468
rtibia 143.033
rfoot -47.0255 67.0236
rtoes -2.75883
lfemur -60.7094 37.7802 7.96929
ltibia 140.064
lfoot -17.5435 -48.6957
ltoes 5.33428
69
root -2.98457 8.09244 -2.85282 315.226 -82.5482 -344.072
lowerback 53.2471 -3.76196 0.525973
upperback 4.79936 -6.13474 -2.33326
thorax -16.0848 -3.13654 0.35851
lowerneck 5.96968 2.53476 -2.03201
upperneck -0.832453 3.18236 -0.968594
head -1.27192 1.60655 -0.0511761
rclavicle 6.86304e-014 -2.98177e-015
rhumerus 67.3321 7.78429 -76.7762
rradius 13.3518
rwrist 42.4461
rhand -21.7488 15.2324
rfingers 7.12502
rthumb 4.6513 -14.6966
lclavicle 6.86304e-014 -2.98177e-015
lhumerus 68.3412 -5.54955 71.4408
lradius 14.1479
lwrist -44.8369
lhand -20.4238 1.9223
lfingers 7.12502
lthumb 5.9307 31.8193
rfemur 17.5269 -54.1596 -113.169
rtibia 144.529
rfoot -51.8772 68.3221
rtoes -2.46545
lfemur -60.671 40.2781 10.4859
ltibia 141.611
lfoot -16.6503 -50.7715
ltoes 5.60271
70
root -3.00588 7.89656 -2.85097 315.159 -82.5175 -344.793
lowerback 53.8306 -3.78771 0.533882
upperback 4.95637 -6.19916 -2.30786
thorax -15.9613 -3.18464 0.421027
lowerneck 6.05367 2.5649 -2.05862
upperneck -0.949245 3.21754 -0.9583
head -1.32479 1.62564 -0.0468275
rclavicle -3.62782e-015 2.98177e-015
rhumerus 67.2193 8.06929 -76.1608
rradius 13.7213
rwrist 41.6464
rhand -21.6503 15.2706
rfingers 7.12502
rthumb 4.74643 -14.6562
lclavicle -3.62782e-015 2.98177e-015
lhumerus 68.2161 -5.83514 70.3541
lradius 14.3888
lwrist -43.8685
lhand -20.8461 1.82493
lfingers 7.12502
lthumb 5.52297 31.733
rfemur 19.3682 -52.3371 -118.698
rtibia 145.979
rfoot -56.8484 69.3881
rtoes -2.32471
lfemur -60.3007 42.863 13.3337
ltibia 143.102
lfoot -15.7443 -52.944
ltoes 5.84749
71
root -3.02886 7.70321 -2.84935 314.984 -82.4483 -345.467
lowerback 54.3967 -3.8051 0.536294
upperback 5.17163 -6.26513 -2.29386
thorax -15.7626 -3.23891 0.470679
lowerneck 6.13732 2.57907 -2.06041
upperneck -1.11789 3.23238 -0.972444
head -1.39339 1.63568 -0.0540588
rclavicle -5.46658e-016 -2.36554e-014
rhumerus 67.3011 8.36776 -75.2969
rradius 13.8517
rwrist 40.6512
rhand -21.6941 15.2828
rfingers 7.12502
rthumb 4.70413 -14.645
lclavicle -5.46658e-016 -2.36554e-014
lhumerus 68.1674 -6.22252 68.9377
lradius 14.662
lwrist -42.5696
lhand -21.2873 1.81721
lfingers 7.12502
lthumb 5.09699 31.7359
rfemur 20.2625 -50.4536 -123.339
rtibia 147.381
rfoot -62.1085 70.1174
rtoes -2.27678
lfemur -59.6306 45.4291 16.5115
ltibia 144.56
lfoot -14.9825 -55.1621
ltoes 5.93097
72
root -3.05437 7.51328 -2.84777 314.737 -82.3935 -346.135
lowerback 55.0251 -3.81668 0.535656
upperback 5.39282 -6.33225 -2.28376
thorax -15.5597 -3.29606 0.518096
lowerneck 6.15122 2.58734 -2.05049
upperneck -1.25896 3.24218 -1.00141
head -1.44052 1.64303 -0.0664846
rclavicle -4.12478e-014 1.21259e-014
rhumerus 67.3717 8.78166 -74.029
rradius 14.1508
rwrist 39.2594
rhand -21.6925 15.1603
rfingers 7.12502
rthumb 4.7057 -14.7674
lclavicle -4.12478e-014 1.21259e-014
lhumerus 68.1263 -6.51067 67.8509
lradius 14.8951
lwrist -41.5884
lhand -21.8232 1.76188
lfingers 7.12502
lthumb 4.57947 31.6924
rfemur 20.1366 -48.7788 -126.919
rtibia 148.733
rfoot -67.0538 70.5341
rtoes -2.3318
lfemur -58.4049 48.0972 20.3255
ltibia 145.946
lfoot -14.1092 -57.593
ltoes 6.26516
73
root -3.08004 7.32597 -2.84601 314.488 -82.3121 -346.809
lowerback 55.652 -3.83642 0.541977
upperback 5.60298 -6.40584 -2.27798
thorax -15.3666 -3.35607 0.56041
lowerneck 6.32314 2.5824 -2.01901
upperneck -1.52026 3.22864 -1.07068
head -1.55327 1.64111 -0.0977499
rclavicle 2.08724e-015 -2.00773e-014
rhumerus 67.3495 9.06318 -73.2205
rradius 14.4253
rwrist 38.3188
rhand -21.7488 15.1309
rfingers 7.12502
rthumb 4.65129 -14.798
lclavicle 2.08724e-015 -2.00773e-014
lhumerus 68.0431 -6.70338 67.2365
lradius 15.0796
lwrist -41.1431
lhand -22.2415 1.67777
lfingers 7.12502
lthumb 4.17556 31.6166
rfemur 19.4557 -47.09 -130.066
rtibia 150.046
rfoot -72.1873 70.943
rtoes -2.39324
lfemur -56.9116 50.6538 24.4747
ltibia 147.302
lfoot -13.1944 -60.0036
ltoes 6.53387
74
root -3.10642 7.14509 -2.84459 314.126 -82.2486 -347.353
lowerback 56.2387 -3.83948 0.532652
upperback 5.83977 -6.47296 -2.27618
thorax -15.1331 -3.41606 0.599336
lowerneck 6.40363 2.57317 -1.97645
upperneck -1.80952 3.21229 -1.15539
head -1.65891 1.63843 -0.134686
rclavicle 5.86415e-015 1.61016e-014
rhumerus 67.3448 9.24469 -72.7182
rradius 14.6614
rwrist 37.7681
rhand -21.9724 15.0951
rfingers 7.12502
rthumb 4.43542 -14.8384
lclavicle 5.86415e-015 1.61016e-014
lhumerus 67.9728 -6.7998 66.8129
lradius 15.2784
lwrist -40.9661
lhand -22.6014 1.53109
lfingers 7.12502
lthumb 3.828 31.4765
rfemur 18.1787 -45.6637 -132.572
rtibia 151.295
rfoot -76.9254 71.4234
rtoes -2.45666
lfemur -54.9175 53.1535 29.1794
ltibia 148.597
lfoot -12.6534 -62.4627
ltoes 6.68462
75
root -3.13092 6.97184 -2.84223 313.776 -82.1727 -347.822
lowerback 56.7699 -3.84044 0.516648
upperback 6.04736 -6.53403 -2.26055
thorax -14.9242 -3.4709 0.653309
lowerneck 6.35187 2.52148 -1.82765
upperneck -2.0342 3.14353 -1.44742
head -1.71481 1.61235 -0.249943
rclavicle -2.43511e-015 -1.0138e-014
rhumerus 67.2895 9.35913 -72.4726
rradius 14.8625
rwrist 37.576
rhand -22.2876 15.0977
rfingers 7.12502
rthumb 4.13109 -14.8419
lclavicle -2.43511e-015 -1.0138e-014
lhumerus 67.8611 -6.6861 67.236
lradius 15.3498
lwrist -41.7134
lhand -22.8186 1.30893
lfingers 7.12502
lthumb 3.61826 31.258
rfemur 16.5658 -44.5188 -134.672
rtibia 152.503
rfoot -81.3719 71.7752
rtoes -2.54912
lfemur -52.9073 55.3517 33.8852
ltibia 149.822
lfoot -12.0475 -64.7671
ltoes 6.91322
76
root -3.15339 6.80913 -2.83977 313.499 -82.1041 -348.232
lowerback 57.1714 -3.84806 0.520954
upperback 6.2622 -6.5902 -2.26832
thorax -14.6986 -3.52307 0.666583
lowerneck 6.23592 2.44414 -1.59697
upperneck -2.27037 3.04603 -1.78258
head -1.76171 1.57222 -0.390967
rclavicle -1.32689e-014 -3.37934e-015
rhumerus 67.2224 9.34347 -72.5521
rradius 15.0181
rwrist 37.7807
rhand -22.68 15.0844
rfingers 7.12502
rthumb 3.75215 -14.8624
lclavicle -1.32689e-014 -3.37934e-015
lhumerus 67.7763 -6.58469 67.6346
lradius 15.4537
lwrist -42.442
lhand -22.8884 1.13116
lfingers 7.12502
lthumb 3.55088 31.0813
rfemur 14.7181 -43.6868 -136.418
rtibia 153.652
rfoot -85.4742 72.3625
rtoes -2.52037
lfemur -50.943 57.2961 38.4895
ltibia 150.961
lfoot -11.1163 -66.9066
ltoes 7.11369
77
root -3.17305 6.66078 -2.83784 313.49 -82.053 -348.742
lowerback 57.4277 -3.87196 0.561443
upperback 6.46022 -6.63466 -2.2803
thorax -14.4842 -3.56742 0.651588
lowerneck 6.11727 2.41084 -1.49638
upperneck -2.50596 3.00522 -1.89587
head -1.81398 1.55635 -0.442867
rclavicle 2.15681e-014 -3.47873e-014
rhumerus 67.169 9.30247 -72.6084
rradius 15.1631
rwrist 38.0223
rhand -23.0484 15.053
rfingers 7.12502
rthumb 3.3964 -14.8996
lclavicle 2.15681e-014 -3.47873e-014
lhumerus 67.6718 -6.36846 68.5117
lradius 15.5045
lwrist -43.6893
lhand -22.9172 0.916252
lfingers 7.12502
lthumb 3.52302 30.8669
rfemur 12.9327 -43.1288 -137.906
rtibia 154.726
rfoot -89.2879 72.7231
rtoes -2.64148
lfemur -49.3732 58.9857 42.6429
ltibia 152.028
lfoot -9.9781 -68.7742
ltoes 7.33999
78
root -3.19033 6.52515 -2.83556 313.232 -82.0021 -348.852
lowerback 57.558 -3.86217 0.54813
upperback 6.64181 -6.66253 -2.28468
thorax -14.2761 -3.59989 0.659296
lowerneck 6.04239 2.37118 -1.411
upperneck -2.76557 2.95119 -2.03189
head -1.88217 1.53481 -0.500017
rclavicle -4.50744e-014 -1.0138e-014
rhumerus 67.1206 9.20277 -72.8499
rradius 15.2665
rwrist 38.5622
rhand -23.3814 15.0472
rfingers 7.12502
rthumb 3.07475 -14.9104
lclavicle -4.50744e-014 -1.0138e-014
lhumerus 67.5585 -6.02788 69.8435
lradius 15.4836
lwrist -45.2654
lhand -22.8843 0.621414
lfingers 7.12502
lthumb 3.55487 30.5715
rfemur 11.1477 -42.8139 -139.298
rtibia 155.732
rfoot -93.0964 73.347
rtoes -2.54432
lfemur -48.0253 60.4824 46.3696
ltibia 153.002
lfoot -8.52985 -70.4009
ltoes 7.48544
79
root -3.20705 6.39947 -2.83338 313.089 -81.9533 -349.021
lowerback 57.6257 -3.86149 0.539858
upperback 6.83006 -6.69631 -2.29191
thorax -14.057 -3.63471 0.663112
lowerneck 6.04051 2.34666 -1.32769
upperneck -3.08775 2.91482 -2.14138
head -1.98473 1.52248 -0.55124
rclavicle -4.54223e-014 -5.96354e-016
rhumerus 67.1418 9.13472 -72.9921
rradius 15.3547
rwrist 38.9906
rhand -23.5823 14.9744
rfingers 7.12502
rthumb 2.88079 -14.9859
lclavicle -4.54223e-014 -5.96354e-016
lhumerus 67.4702 -5.73326 70.9709
lradius 15.5044
lwrist -46.5041
lhand -22.9085 0.357411
lfingers 7.12502
lthumb 3.5315 30.3079
rfemur 9.33035 -42.635 -140.493
rtibia 156.662
rfoot -96.9574 74.0122
rtoes -2.5171
lfemur -46.8174 61.8152 49.8503
ltibia 153.923
lfoot -7.16804 -71.8301
ltoes 7.51946
